PathFileType	4	(X/Y/Z)	C:/Users/beibeiliu/ov580/test_trc/capture2\sequence.7_training_dense_left.trc
DataRate	CameraRate	NumFrames	NumMarkers	Units	OrigDataRate	OrigDataStartFrame	OrigNumFrames
120	120	23	19	mm	120	301	400
Frame#	Time	ThumbCMC			ThumbMCP			ThumbIP			ThumbTip			IndexMCP			IndexPIP			IndexTip			MiddleMCP			MiddlePIP			MiddleTip			RingMCP			RingPIP			RingTip			PinkyMCP			PinkyPIP			PinkyTip			BackHand1			BackHand2			BackHand3	
		X0	Y0	Z0	X1	Y1	Z1	X2	Y2	Z2	X3	Y3	Z3	X4	Y4	Z4	X5	Y5	Z5	X6	Y6	Z6	X7	Y7	Z7	X8	Y8	Z8	X9	Y9	Z9	X10	Y10	Z10	X11	Y11	Z11	X12	Y12	Z12	X13	Y13	Z13	X14	Y14	Z14	X15	Y15	Z15	X16	Y16	Z16	X17	Y17	Z17	X18	Y18	Z18	
300	2.5	-121.236	92.4004	-61.4707	-108.202	99.549	-87.2688	-103.472	107.767	-109.199	-98.4494	121.884	-128.048	-94.242	62.2264	-130.566	-65.8172	64.5321	-121.486	-78.5783	65.651	-89.326	-92.4616	41.7174	-125.978	-66.0786	44.9822	-110.131	-84.7247	57.5489	-82.3261	-90.9578	26.0016	-116.158	-70.0512	33.7164	-98.0756	-94.9381	48.0639	-74.3162	-92.6932	13.0735	-102.827	-75.7679	24.1962	-83.7479	-96.803	40.1607	-67.0169	-141.02	35.8951	-84.8086	-152.292	43.783	-60.6405	-144.064	65.8697	-77.7724	
301	2.50833	-119.365	94.6844	-63.8082	-106.752	105.611	-86.8544	-100.657	116.736	-107.054	-97.3123	125.444	-123.771	-95.4289	69.1076	-128.314	-65.1453	68.4956	-122.224	-75.4455	75.7738	-90.3847	-94.0941	48.5622	-125.051	-64.9796	50.0748	-107.004	-85.1356	58.9364	-80.7929	-92.0817	34.5261	-115.692	-67.5974	37.2373	-95.1989	-92.7102	56.0665	-76.0931	-92.2926	17.1699	-103.824	-74.2521	29.6951	-83.7845	-95.2015	45.9022	-67.2172	-139.764	37.1805	-84.1658	-151.156	45.5816	-58.755	-143.267	74.1552	-78.2122	
302	2.51667	-118.11	102.172	-62.8794	-104.988	112.466	-85.7926	-100.177	120.534	-104.629	-95.457	133.325	-127.015	-93.0872	79.0753	-129.407	-62.444	74.5763	-122.556	-76.0893	81.1271	-88.3953	-88.6587	53.318	-125.931	-62.6191	56.8038	-107.911	-80.8117	68.0015	-81.5676	-86.1053	38.6787	-117.171	-65.801	41.6206	-95.3746	-91.7329	59.1962	-74.9622	-90.575	24.5793	-104.215	-72.0966	37.1086	-85.8177	-94.6423	50.2454	-67.0675	-138.609	43.101	-84.9138	-148.138	47.2981	-57.5666	-140.662	79.3485	-74.8237	
303	2.525	-116.197	104.185	-60.9286	-103.844	117.102	-83.6376	-97.9569	124.093	-104.353	-93.1293	138.019	-122.23	-90.8065	78.9463	-128.069	-60.2522	76.8965	-117.396	-72.5634	83.7794	-88.2412	-83.6931	58.8319	-126.924	-60.3003	60.0634	-106.042	-81.6901	74.5374	-81.3239	-86.5851	40.4619	-114.214	-63.3644	50.5011	-97.488	-87.1355	62.7048	-74.9383	-89.6422	30.3315	-104.227	-69.2832	40.5784	-82.2039	-90.7085	53.2609	-67.1416	-134.597	46.5108	-87.8751	-146.806	50.2202	-60.1407	-138.986	81.0617	-75.001	
304	2.53333	-114.436	106.509	-61.8195	-100.706	121.303	-81.5744	-96.113	127.377	-105.522	-91.5423	139.209	-124.692	-86.8881	84.2425	-126.762	-58.0351	82.2888	-116.38	-71.9731	86.1294	-86.8725	-83.48	60.9311	-123.349	-57.7175	62.4482	-108.746	-80.496	74.0973	-78.6673	-80.1513	46.8269	-115.062	-60.7114	56.9774	-93.9874	-82.1427	65.2698	-73.6892	-84.1261	32.7618	-103.477	-67.2388	45.4379	-84.6974	-89.9934	58.3911	-66.6031	-134.507	52.4618	-84.5823	-141.905	58.4655	-58.8487	-136.452	87.4858	-76.6367	
305	2.54167	-113.952	110.061	-62.9884	-99.5987	119.721	-80.0391	-94.9394	134.188	-104.911	-89.7846	146.062	-122.276	-81.724	90.6894	-127.892	-55.2417	85.7445	-117.485	-71.8323	91.7806	-84.7675	-83.4759	64.7072	-122.461	-55.2964	68.572	-107.815	-78.1059	80.764	-78.9905	-79.7629	48.2417	-113.621	-57.7143	53.4956	-93.3352	-81.4692	69.8212	-73.7129	-84.7493	32.7782	-101.982	-63.7163	47.1105	-83.0557	-89.8818	61.9583	-66.7014	-130.37	53.2659	-84.2048	-142.083	56.6006	-60.2517	-135.678	87.5964	-74.2915	
306	2.55	-112.141	113.034	-58.6896	-97.4621	122.695	-80.9114	-92.9383	136.498	-106.418	-88.9119	149.872	-118.77	-80.9733	89.8562	-125.884	-53.4569	88.1024	-113.168	-68.6953	93.1215	-85.172	-79.464	68.695	-122.345	-53.1518	70.8717	-105.166	-77.5757	82.9177	-77.6516	-75.4773	50.5866	-112.815	-56.8787	61.6233	-89.6193	-80.0548	69.5524	-70.9087	-82.5046	39.9918	-102.044	-62.9376	51.686	-81.5932	-86.7484	62.0603	-64.4546	-128.256	57.0545	-85.7625	-139.799	60.9546	-58.482	-133.887	87.6383	-74.9544	
307	2.55833	-110.981	119.992	-58.8495	-96.2078	131.852	-77.3267	-90.9696	139.909	-101.918	-87.1434	152.665	-120.324	-79.4184	95.4956	-126.007	-51.0158	91.2537	-114.17	-64.6183	94.0902	-84.8621	-75.9628	71.2903	-120.755	-49.9733	74.0525	-100.381	-73.5758	83.838	-76.2115	-72.9907	57.9173	-113.129	-54.3559	65.5622	-90.6527	-77.7465	71.6071	-69.7146	-76.6799	41.6642	-100.624	-59.4067	53.5763	-80.8741	-86.6309	66.0046	-63.0246	-125.384	58.64	-83.3012	-136.581	65.6971	-59.0943	-131.64	95.1258	-74.5045	
308	2.56667	-108.218	119.126	-60.9806	-95.4035	133.032	-76.4334	-90.3274	146.728	-100.178	-85.6287	155.946	-115.807	-77.3328	99.8506	-124.572	-47.3795	99.3865	-113.377	-62.538	99.3987	-84.0215	-75.174	75.6578	-121.046	-48.5314	79.2383	-103.182	-69.3404	85.0029	-74.4043	-69.9703	58.5774	-111.198	-51.4489	65.8698	-89.1682	-74.8921	78.2607	-71.4057	-76.7975	42.5673	-98.8148	-58.6363	56.6754	-76.4195	-81.7326	68.2936	-60.6945	-123.646	64.0126	-83.728	-133.969	65.2759	-56.5208	-128.052	93.3255	-74.5478	
309	2.575	-107.6	121.758	-61.8828	-94.6585	131.341	-79.2272	-90.1973	146.386	-103.352	-87.1343	159.854	-121.443	-76.8623	101.991	-123.915	-47.0789	97.9775	-112.352	-61.3036	102.477	-82.0529	-72.2758	81.1392	-121.049	-46.4072	84.0882	-104.66	-68.8638	87.5541	-74.8662	-70.9226	60.0987	-110.182	-50.7694	72.2466	-89.5393	-78.9537	80.0731	-70.1335	-72.5458	50.1125	-99.7006	-56.2567	60.9074	-78.4168	-82.955	73.6809	-63.5113	-122.447	61.1364	-84.3364	-132.788	68.1604	-53.8226	-127.073	94.9437	-77.0395	
310	2.58333	-107.034	122.917	-60.6225	-94.7093	136.645	-78.9185	-89.3482	145.343	-99.3251	-85.5986	160.785	-116.166	-74.0616	104.842	-123.242	-45.5678	99.2707	-111.015	-61.8678	100.751	-81.9296	-70.0474	81.9585	-119.624	-44.7208	82.3365	-101.067	-69.0502	91.4962	-73.04	-69.0964	62.326	-109.691	-48.3236	72.5224	-88.5076	-76.6367	79.0756	-67.4166	-70.4372	50.2631	-98.6931	-55.9731	62.6587	-75.7765	-80.3024	74.7966	-63.6639	-120.451	61.8456	-83.3965	-131.327	72.3631	-56.8307	-125.136	99.2262	-71.5238	
311	2.59167	-105.819	123.637	-56.2669	-92.4506	135.298	-78.607	-89.257	152.649	-98.2978	-85.2238	160.555	-116.772	-71.7489	101.826	-122.261	-44.0992	101.814	-110.183	-58.7694	106.632	-79.8791	-69.6427	85.157	-118.841	-43.4574	82.991	-99.1169	-68.8519	93.6336	-72.2241	-67.2468	65.8098	-108.778	-46.6102	72.2389	-85.5048	-72.781	81.5499	-65.7927	-68.6235	54.3547	-98.1379	-53.611	65.8761	-77.0817	-80.022	73.6692	-60.1424	-117.523	63.7749	-82.5089	-130.034	73.8672	-52.6603	-123.685	101.628	-76.3937	
312	2.6	-106.533	128.724	-59.5958	-93.8056	137.036	-77.6331	-89.3619	150.516	-97.7015	-85.6744	163.399	-117.719	-71.5533	106.288	-121.964	-44.0095	105.764	-107.54	-62.0722	106.37	-79.1592	-68.5838	82.5437	-116.633	-42.8834	91.6165	-96.8165	-69.4385	96.8697	-71.6556	-63.9275	67.0751	-107.453	-45.8304	77.5551	-86.5385	-72.729	86.9576	-67.6422	-65.6162	55.3015	-96.6697	-53.0352	68.0795	-74.6914	-77.347	75.8346	-56.5564	-115.865	65.9948	-83.081	-128.681	71.4289	-51.9205	-122.942	100.941	-70.7899	
313	2.60833	-107.534	130.922	-54.7065	-95.1965	138.797	-72.834	-90.4711	153.055	-101.118	-88.8705	167.329	-114.982	-74.0329	108.637	-119.304	-44.5539	105.938	-109.234	-60.7422	109.948	-78.7639	-67.3726	89.5939	-116.476	-42.0659	88.9843	-95.3867	-68.3696	99.017	-69.8896	-61.9394	70.4964	-106.354	-45.3233	76.7001	-81.8556	-73.1312	88.0947	-65.1596	-68.508	56.7112	-93.6789	-50.4477	70.7453	-73.4572	-77.4417	79.2305	-57.6128	-116.114	69.9771	-83.6381	-130.331	72.4933	-51.4967	-123.477	102.729	-71.6407	
314	2.61667	-110.388	129.839	-54.2637	-97.0531	140.966	-75.4356	-94.2286	156.001	-96.0236	-89.7034	165.599	-114.193	-74.5799	108.666	-118.16	-45.1846	109.52	-107.179	-62.5519	114.683	-78.1566	-67.7002	88.1485	-113.38	-42.0049	94.8055	-95.6687	-67.2506	101.928	-69.8576	-63.1321	69.2439	-103.835	-44.3393	83.9344	-85.4292	-69.4147	91.696	-63.9985	-64.221	61.3365	-93.3204	-48.2601	71.5894	-72.6055	-75.645	81.848	-53.4556	-112.569	66.9908	-81.3153	-127.798	71.4562	-49.3488	-122.926	98.7471	-71.5538	
315	2.625	-111.701	131.908	-54.4036	-99.0011	143.387	-73.9365	-95.3012	155.816	-95.3979	-94.4631	170.819	-116.882	-68.6358	112.414	-118.957	-43.8007	117.262	-104.496	-63.0139	119.687	-76.8902	-62.0222	93.6441	-113.501	-41.0946	101.398	-91.5277	-68.773	102.779	-68.1766	-60.7754	75.6605	-103.269	-43.9588	87.7355	-80.2239	-70.3123	92.0533	-61.6154	-62.2045	63.914	-91.5792	-48.7478	79.1023	-70.1398	-78.1184	84.8048	-55.163	-112.982	72.2946	-79.2541	-126.311	71.7449	-50.6978	-124.27	100.183	-70.3491	
316	2.63333	-111.076	131.493	-54.9533	-100.499	143.098	-76.1493	-99.5021	160.404	-99.5982	-94.9607	168.456	-113.392	-73.8284	114.881	-116.534	-44.17	116.624	-105.097	-65.5821	123.53	-75.5009	-63.7007	96.8794	-112.214	-41.2911	100.975	-90.7758	-71.217	105.442	-67.429	-56.4878	77.4886	-101.598	-41.9107	89.721	-78.9775	-69.7764	93.0085	-59.8939	-56.6776	64.4498	-90.7807	-47.0072	79.5026	-67.6995	-73.6338	88.0196	-54.7189	-112.409	72.6856	-77.4205	-127.347	75.6562	-49.9954	-124.781	104.669	-71.7618	
317	2.64167	-113.684	134.629	-55.4604	-102.623	145.578	-72.5456	-101.248	160.178	-97.3561	-99.7368	171.855	-115.195	-69.7553	113.168	-116.499	-44.5113	118.414	-103.36	-67.6596	118.938	-74.755	-64.5047	93.2127	-110.362	-42.0798	108.053	-89.9902	-67.2503	105.409	-65.6999	-56.1831	78.4093	-99.7042	-42.22	93.3354	-79.884	-71.3433	95.9972	-60.275	-59.4601	64.9847	-89.6937	-46.2447	82.2848	-67.5062	-76.2156	89.3358	-52.5475	-112.538	69.7808	-76.3429	-124.613	75.2096	-48.4895	-122.511	103.2	-69.7936	
318	2.65	-115.948	132.442	-55.3081	-106.023	144.092	-72.2839	-103.903	157.557	-98.4807	-101.39	166.319	-114.841	-70.0219	114.178	-116.562	-45.5405	123.819	-102.985	-64.7539	120.158	-73.9548	-60.8613	98.774	-110.782	-41.024	103.491	-89.087	-69.3896	107.449	-65.4283	-60.806	80.6439	-100.332	-42.255	94.0941	-77.6144	-74.1271	95.9594	-60.0323	-58.7599	63.8543	-88.3166	-46.2367	83.1178	-69.4181	-71.1371	86.6177	-52.5978	-111.108	68.8157	-74.5634	-124.015	73.2013	-46.9578	-126.048	100.692	-68.3329	
319	2.65833	-116.389	129.114	-57.7728	-108.585	143.022	-72.8975	-106.867	156.175	-98.8543	-103.681	162.883	-115.309	-71.8742	114.627	-117.178	-46.8252	118.615	-103.878	-67.1448	116.31	-74.806	-59.7472	92.1203	-110.098	-42.2009	106.115	-87.0609	-68.7238	106.351	-64.316	-57.5879	79.1418	-99.8199	-42.7835	91.4001	-78.7624	-71.876	93.6305	-58.7476	-59.9055	65.283	-88.3562	-44.0282	78.0559	-66.6865	-73.5621	85.2814	-50.619	-107.181	65.9797	-78.3688	-124.262	70.925	-48.0485	-125.42	95.0334	-69.1403	
320	2.66667	-117.357	121.926	-53.9413	-108.617	136.696	-77.4618	-107.7	149.169	-100.196	-108.715	160.342	-119.285	-75.2726	105.258	-115.008	-47.3573	117.552	-104.302	-69.044	118.882	-74.7184	-64.0445	87.4986	-108.459	-42.3996	103.513	-88.4587	-69.3043	100.218	-63.7867	-55.0742	75.4425	-98.9736	-42.3695	89.2626	-74.6658	-75.4002	89.9769	-58.6209	-57.639	59.3656	-86.785	-44.9635	80.1831	-68.448	-75.4939	83.5033	-50.2083	-107.751	58.2525	-76.5934	-124.039	64.425	-47.8671	-125.338	91.9875	-66.2226	
321	2.675	-117.511	115.711	-58.3865	-111.632	134.661	-74.9609	-110.883	144.386	-97.9545	-111.313	155.84	-117.081	-71.4107	100.191	-115.693	-49.4113	113.269	-106.04	-69.878	113.411	-74.331	-62.4378	86.4523	-110.816	-42.6197	96.7522	-92.5652	-69.3843	99.9654	-65.103	-59.0748	70.9912	-99.601	-43.9707	88.4654	-77.3597	-72.928	89.3005	-59.7936	-60.3049	56.9634	-85.9969	-45.346	76.0841	-65.6993	-75.4014	82.0436	-51.3282	-107.68	55.4499	-74.067	-125.239	61.1875	-46.8585	-126.405	85.1738	-68.041	
322	2.68333	-119.465	113.02	-54.5766	-111.275	126.428	-78.9312	-112.527	139.091	-100.283	-111.782	146.748	-121.493	-71.2387	94.1699	-116.829	-49.1749	104.594	-105.681	-66.8991	106.289	-76.669	-64.3346	82.015	-111.479	-42.4819	91.5098	-92.3822	-72.1765	98.9504	-66.3919	-56.7219	63.6662	-97.7111	-42.8561	82.5377	-78.4734	-69.9529	86.3827	-61.2892	-56.3937	54.3295	-86.1939	-45.3705	71.8046	-64.4458	-71.8036	78.5615	-54.1065	-107.69	53.4439	-72.8883	-121.45	55.9024	-46.1883	-122.749	78.9795	-70.9315	
